<svg width="20" height="17" viewBox="0 0 20 17" fill="none" xmlns="http://www.w3.org/2000/svg">
<path d="M5.12648 4.25C3.99497 4.25 3.07502 3.29707 3.07502 2.125C3.07502 0.95293 3.99497 0 5.12648 0C6.25799 0 7.17795 0.95293 7.17795 2.125C7.17795 3.29707 6.25799 4.25 5.12648 4.25ZM2.81859 15.9375V13.2812H2.24802C1.89863 13.2812 1.65181 12.926 1.7608 12.5807L2.75768 9.47949L1.84093 10.7346C1.49795 11.2027 0.853667 11.2924 0.404909 10.9404C-0.0438492 10.5885 -0.133601 9.92109 0.206173 9.45293L2.09416 6.87305C2.81217 5.89023 3.93727 5.3125 5.12648 5.3125C6.31569 5.3125 7.44079 5.89023 8.1588 6.87305L10.0468 9.45293C10.3898 9.92109 10.3 10.5885 9.84806 10.9404C9.39609 11.2924 8.75181 11.2027 8.41203 10.7346L7.49528 9.47949L8.49217 12.5807C8.60436 12.926 8.35433 13.2812 8.00494 13.2812H7.43438V15.9375C7.43438 16.5252 6.97601 17 6.40865 17C5.84129 17 5.38292 16.5252 5.38292 15.9375V13.2812H4.87005V15.9375C4.87005 16.5252 4.41168 17 3.84432 17C3.27696 17 2.81859 16.5252 2.81859 15.9375ZM15.3838 4.25C14.2523 4.25 13.3323 3.29707 13.3323 2.125C13.3323 0.95293 14.2523 0 15.3838 0C16.5153 0 17.4353 0.95293 17.4353 2.125C17.4353 3.29707 16.5153 4.25 15.3838 4.25ZM15.1274 12.75V15.9375C15.1274 16.5252 14.669 17 14.1016 17C13.5343 17 13.0759 16.5252 13.0759 15.9375V9.97754L12.6624 10.6582C12.3611 11.1562 11.7264 11.3023 11.2488 10.9902C10.7712 10.6781 10.627 10.0207 10.9283 9.52598L12.5855 6.8C13.1496 5.87363 14.1337 5.30918 15.1883 5.30918H15.5825C16.6403 5.30918 17.6244 5.87031 18.1853 6.8L19.8425 9.5293C20.1438 10.0273 19.9996 10.6814 19.522 10.9936C19.0444 11.3057 18.4097 11.1563 18.1084 10.6615L17.6917 9.97754V15.9375C17.6917 16.5252 17.2333 17 16.666 17C16.0986 17 15.6402 16.5252 15.6402 15.9375V12.75H15.1274Z" fill="white"/>
</svg>
