<svg width="24" height="19" viewBox="0 0 24 19" fill="none" xmlns="http://www.w3.org/2000/svg">
<g clip-path="url(#clip0_880_153)">
<path d="M6 2.375C6 1.06504 7.07625 0 8.4 0H21.6C22.9238 0 24 1.06504 24 2.375V13.0625C24 14.3725 22.9238 15.4375 21.6 15.4375H12.63C12.1875 14.4912 11.5088 13.6748 10.665 13.0625H14.4V11.875C14.4 11.2182 14.9363 10.6875 15.6 10.6875H18C18.6638 10.6875 19.2 11.2182 19.2 11.875V13.0625H21.6V2.375H8.4V4.19707C7.695 3.79258 6.87375 3.5625 6 3.5625V2.375ZM6 11.875C4.0125 11.875 2.4 10.2793 2.4 8.3125C2.4 6.3457 4.0125 4.75 6 4.75C7.9875 4.75 9.6 6.3457 9.6 8.3125C9.6 10.2793 7.9875 11.875 6 11.875ZM4.99875 13.0625H6.9975C9.76125 13.0625 12 15.2779 12 18.0092C12 18.5547 11.5537 19 10.9987 19H1.00125C0.44625 19 0 18.5584 0 18.0092C0 15.2779 2.23875 13.0625 4.99875 13.0625Z" fill="currentcolor"/>
</g>
<defs>
<clipPath id="clip0_880_153">
<rect width="24" height="19" fill="white"/>
</clipPath>
</defs>
</svg>
