<svg width="12" height="18" viewBox="0 0 12 18" fill="none" xmlns="http://www.w3.org/2000/svg">
<path d="M8.40023 2.25C8.40023 3.49102 7.32396 4.5 6.0002 4.5C4.67643 4.5 3.60017 3.49102 3.60017 2.25C3.60017 1.00898 4.67643 0 6.0002 0C7.32396 0 8.40023 1.00898 8.40023 2.25ZM5.40019 13.5V16.875C5.40019 17.4973 4.86393 18 4.20018 18C3.53642 18 3.00016 17.4973 3.00016 16.875V10.118L2.2164 11.2852C1.8639 11.8125 1.12139 11.9672 0.562632 11.6367C0.00387515 11.3063 -0.168627 10.6137 0.183877 10.0898L1.68015 7.86445C2.61391 6.46875 4.24518 5.625 6.0002 5.625C7.75522 5.625 9.38649 6.46875 10.3202 7.86094L11.8165 10.0898C12.169 10.6172 12.0003 11.3098 11.4415 11.6402C10.8828 11.9707 10.1402 11.8125 9.78774 11.2887L9.00023 10.118V16.875C9.00023 17.4973 8.46398 18 7.80022 18C7.13646 18 6.6002 17.4973 6.6002 16.875V13.5H5.40019Z" fill="white"/>
</svg>
