<svg width="11" height="18" viewBox="0 0 11 18" fill="none" xmlns="http://www.w3.org/2000/svg">
<path d="M7.69991 2.25C7.69991 1.00898 6.71335 0 5.49991 0C4.28648 0 3.29991 1.00898 3.29991 2.25C3.29991 3.49102 4.28648 4.5 5.49991 4.5C6.71335 4.5 7.69991 3.49102 7.69991 2.25ZM3.02491 14.0625V16.875C3.02491 17.4973 3.51648 18 4.12491 18C4.73335 18 5.22491 17.4973 5.22491 16.875V14.0625H5.77491V16.875C5.77491 17.4973 6.26648 18 6.87491 18C7.48335 18 7.97491 17.4973 7.97491 16.875V14.0625H8.58679C8.96148 14.0625 9.22616 13.6863 9.10929 13.3207L8.04023 10.0371L9.02335 11.366C9.39116 11.8617 10.0821 11.9566 10.5634 11.584C11.0446 11.2113 11.1409 10.5047 10.7765 10.009L8.75179 7.27734C7.98179 6.23672 6.77523 5.625 5.49991 5.625C4.2246 5.625 3.01804 6.23672 2.24804 7.27734L0.223351 10.009C-0.144462 10.5047 -0.0482118 11.2113 0.436476 11.584C0.921163 11.9566 1.6121 11.8617 1.97648 11.366L2.96304 10.0371L1.89054 13.3207C1.77366 13.6863 2.03835 14.0625 2.41304 14.0625H3.02491Z" fill="white"/>
</svg>
